<?xml version="1.0" encoding="utf-8" ?>
<svg baseProfile="full" height="200mm" version="1.1" viewBox="0,0,200,200" width="200mm" xmlns="http://www.w3.org/2000/svg" xmlns:ev="http://www.w3.org/2001/xml-events" xmlns:xlink="http://www.w3.org/1999/xlink"><defs /><rect fill="#1a1a1a" height="200" width="200" x="0" y="0" /><rect fill="#1a1a1a" height="200" width="180" x="10" y="0" /><text alignment-baseline="middle" fill="#e1ed5e" style="dominant-baseline: central; font-size:9.0px; font-family:Arial;" text-anchor="middle" x="100.0" y="100.0">2022</text><line stroke="#e1ed5e" stroke-width="0.3" x1="100.0" x2="100.0" y1="15.0" y2="10.0" /><path d="M 100.0 14.0 a86.0,86.0 0 0,1 42.46469731375804,11.215312516191453" fill="none" id="id1" stroke="none" /><text fill="#e1ed5e" style="font-size:6.75px; font-family:Arial;" text-anchor="middle"><textPath startOffset="22.20632615414155" xlink:href="#id1">January</textPath></text><line stroke="#e1ed5e" stroke-width="0.3" x1="143.23703022742887" x2="145.7803849466894" y1="26.81831364943548" y2="22.513508569990506" /><path d="M 143.74570117128098 25.957352633546492 a86.0,86.0 0 0,1 28.547481713284135,27.462654790039103" fill="none" id="id2" stroke="none" /><text fill="#e1ed5e" style="font-size:6.75px; font-family:Arial;" text-anchor="middle"><textPath startOffset="19.985693538727396" xlink:href="#id2">February</textPath></text><line stroke="#e1ed5e" stroke-width="0.3" x1="172.23445277983987" x2="176.4835382374775" y1="55.19839476539836" y2="52.563006222186495" /><path d="M 173.08426987136738 54.67131705675599 a86.0,86.0 0 0,1 12.851231095245387,41.99856678651699" fill="none" id="id3" stroke="none" /><text fill="#e1ed5e" style="font-size:6.75px; font-family:Arial;" text-anchor="middle"><textPath startOffset="22.20632615414155" xlink:href="#id3">March</textPath></text><path d="M 117.84615892207809 88.93136811851018 l 9.500822141377242 -5.892646328746639 a32.17984356410121,32.17984356410121 0 0,0 0.28790877234835005,0.4732463212261498 l -9.600846712011817 5.728232234313408" fill="#ff8e0d" stroke="none" /><path d="M 118.03404312379186 89.2402003453031 l 10.393759817243659 -6.201314509725221 a33.103162594424546,33.103162594424546 0 0,0 0.2877458131451401,0.4918508688408047 l -10.498965304859126 6.021484228530522" fill="#ff9a0e" stroke="none" /><path d="M 118.21658344932153 89.55222093294921 l 11.317742459343565 -6.491078477034926 a34.04704541921481,34.04704541921481 0 0,0 0.2871987586944465,0.510894545218744 l -11.427798859330444 6.295300421881389" fill="#ffa60f" stroke="none" /><path d="M 118.3937258080291 89.86733742301442 l 10.782692161693129 -5.939926607922552 a33.31053119736694,33.31053119736694 0 0,0 0.2723404008246932,0.5046054013895156 l -10.883340661736286 5.7534402232005775" fill="#ff9d0e" stroke="none" /><path d="M 118.56541770881063 90.18545643968196 l 35.856337259704844 -18.955328098102516 a61.55837009777899,61.55837009777899 0 0,0 0.4871628771566302,0.9410436178371514 l -36.17730957002159 18.33531175800502" fill="#31ff40" stroke="none" /><path d="M 118.89224826269711 90.83032412892265 l 11.821629180177098 -5.737829947128706 a34.140533055237206,34.140533055237206 0 0,0 0.2520576146709144,0.5308976192029783 l -11.918644988689769 5.533489912285187" fill="#ffa70f" stroke="none" /><path d="M 119.04729006885535 91.15688171328212 l 14.443840347108521 -6.705866726563941 a36.92460902274205,36.92460902274205 0 0,0 0.2626881445253312,0.5787985058284986 l -14.5571308085972 6.45624621189338" fill="#ffcb12" stroke="none" /><path d="M 119.196687751892 91.48605970444005 l 19.336825922804824 -8.576093102111852 a42.15330257111043,42.15330257111043 0 0,0 0.28846767572766574,0.6658231676827184 l -19.481584308375172 8.24197078984253" fill="#f2ff19" stroke="none" /><path d="M 119.34039704204932 91.81776055985345 l 11.897838980731299 -5.033555782179394 a33.91879468927813,33.91879468927813 0 0,0 0.22285990828952393,0.5396729450124417 l -11.98272057590702 4.828008266713649" fill="#ffa40f" stroke="none" /><path d="M 119.47837535516314 92.15188598940014 l 26.934222078089967 -10.852180523343003 a50.038287502245964,50.038287502245964 0 0,0 0.3150183028890864,0.8016872201638805 l -27.117033930860753 10.386944298283339" fill="#98ff23" stroke="none" /><path d="M 119.61058180528143 92.48833698450437 l 3.7590227420872617 -1.4398610090466233 a25.025351127653586,25.025351127653586 0 0,0 0.15062331207957577,0.4035955911739597 l -3.7832506426684627 1.3749422808433303" fill="#ff2b04" stroke="none" /><path d="M 119.7369772167798 92.82701384747503 l 43.09739413706053 -15.662834686368623 a66.85531345239777,66.85531345239777 0 0,0 0.3837715270562403,1.0849737862176116 l -43.36061874492658 14.918663273724395" fill="#38ff7e" stroke="none" /><path d="M 119.85752413597 93.16781622104841 l 13.741320111827845 -4.727841382770923 a35.53190842788261,35.53190842788261 0 0,0 0.1940087989426034,0.580061614932356 l -13.820666204542219 4.490606664916252" fill="#ffb911" stroke="none" /><path d="M 119.97218684219823 93.5106431181261 l 11.540728221858172 -3.749809908152687 a33.13463976548434,33.13463976548434 0 0,0 0.17158144627677868,0.5439600735557752 l -11.603565151903158 3.5505996681704928" fill="#ff9a0e" stroke="none" /><path d="M 120.08093135843002 93.85539295169968 l 1.855456964812518 -0.5677552370606915 a22.94037794191779,22.94037794191779 0 0,0 0.11229217002180632,0.3785933738855632 l -1.8649550319460266 0.5357324764285984" fill="#ff0d01" stroke="none" /><path d="M 120.18372546131832 94.20196356495316 l 12.010894547219538 -3.4502849504045816 a33.496641711412565,33.496641711412565 0 0,0 0.15442466948872935,0.5555476991195357 l -12.06850598727463 3.2430259478660943" fill="#ff9f0e" stroke="none" /><path d="M 120.28053869075195 94.5502522615342 l 23.27466830270632 -6.25432454632261 a45.10034771806697,45.10034771806697 0 0,0 0.19501319079644308,0.75146537502578 l -23.378877825373067 5.85276274574798" fill="#cfff1d" stroke="none" /><path d="M 120.37134235888165 94.90015583598534 l 3.992302435330527 -0.9994491240252068 a25.1155044996526,25.1155044996526 0 0,0 0.10137957078439716,0.42028377121440774 l -4.008914806375744 0.930580121151393" fill="#ff2c04" stroke="none" /><path d="M 120.45610955862082 95.25157060432595 l 34.48466612711789 -8.004845783053772 a56.40155016251782,56.40155016251782 0 0,0 0.21138659902744247,0.947604674693289 l -34.61734711314737 7.410062938810519" fill="#54ff2b" stroke="none" /><path d="M 120.53481517161879 95.60439243477599 l 1.024741679602418 -0.219352462713482 a22.04795563494494,22.04795563494494 0 0,0 0.07624466961164825,0.3717960867696707 l -1.0283656451290633 0.2016807197803995" fill="#ff0000" stroke="none" /><path d="M 120.6074358757038 95.95851677861258 l 26.508372420671147 -5.198761408775844 a48.01334723018189,48.01334723018189 0 0,0 0.15207490636571958,0.8123902307278936 l -26.593933050946728 4.741693100585387" fill="#aeff20" stroke="none" /><path d="M 120.67395015179393 96.31383870115 l 20.862868606283563 -3.719845422612755 a42.191897896393925,42.191897896393925 0 0,0 0.12132810347104987,0.7160853346762809 l -20.923808571274837 3.360174299620636" fill="#f2ff19" stroke="none" /><path d="M 120.73433829027371 96.67025291283417 l 1.8878075968764412 -0.30316481571912635 a22.911995404888415,22.911995404888415 0 0,0 0.059182891441001834,0.38994130926550735 l -1.8927463817567427 0.2706243940615368" fill="#ff0d01" stroke="none" /><path d="M 120.78858239683441 97.02765380044208 l 1.8646382404917259 -0.2666054992051741 a22.883601406909253,22.883601406909253 0 0,0 0.052396910076663125,0.3904178405523251 l -1.8689511496262252 0.23446931658818468" fill="#ff0c01" stroke="none" /><path d="M 120.83666639777658 97.38593545837742 l 29.78379363380851 -3.7365266289165597 a51.01726160844615,51.01726160844615 0 0,0 0.10181502022540637,0.8722889159062707 l -29.843699007037507 3.2232939746854363" fill="#8dff24" stroke="none" /><path d="M 120.91429891909075 98.10471618934814 l 17.95583758124403 -1.6271837944977428 a39.029415696164186,39.029415696164186 0 0,0 0.05487445926917911,0.6696073949924104 l -17.981186524332703 1.3178624822975635" fill="#ffe615" stroke="none" /><path d="M 120.94382443527127 98.46500227214037 l 30.351859630979796 -2.2245237833166107 a51.43326944515233,51.43326944515233 0 0,0 0.05711397362721934,0.883527892770001 l -30.38565419561143 1.7017368262935744" fill="#88ff25" stroke="none" /><line stroke="#e1ed5e" stroke-width="0.3" x1="184.98032266829074" x2="189.97916517819016" y1="98.17113171792111" y2="98.06355123074" /><path d="M 185.9800911702706 98.14961562048488 a86.0,86.0 0 0,1 -9.607161424134198,41.387399972396054" fill="none" id="id4" stroke="none" /><text fill="#e1ed5e" style="font-size:6.75px; font-family:Arial;" text-anchor="middle"><textPath startOffset="21.466115282336823" xlink:href="#id4">April</textPath></text><path d="M 120.99513854157772 99.54816195383933 l 9.345199437578671 -0.2011187802593089 a30.34736333368366,30.34736333368366 0 0,0 0.006744329936876271,0.5223557861234288 l -9.347276774633263 0.04022673607541731" fill="#ff750a" stroke="none" /><path d="M 120.99980553446 99.90962569577887 l 25.252289256268703 -0.1086752002432144 a46.252523101294486,46.252523101294486 0 0,0 -0.003426436931238492,0.7961832719182415 l -25.250418522047962 -0.3260175498787118" fill="#c2ff1e" stroke="none" /><path d="M 120.9904718944345 100.63252640178507 l 13.863077206942222 0.4177496526745914 a34.869370007969025,34.869370007969025 0 0,0 -0.023242705187323343,0.5997909442459912 l -13.853832368903696 -0.6563178439345889" fill="#ffb110" stroke="none" /><path d="M 120.9764740272857 100.99374915477107 l 9.379305657289578 0.4443395518783024 a30.38982493181996,30.38982493181996 0 0,0 -0.02925186941720107,0.5223117787385113 l -9.370267436984848 -0.6057230469522371" fill="#ff760a" stroke="none" /><path d="M 120.95626037817324 101.35467743843564 l 9.803231215637298 0.6337111637257434 a30.82369238658643,30.82369238658643 0 0,0 -0.03878419178692705,0.5291794827487803 l -9.790870465186034 -0.8023637829712941" fill="#ff7b0b" stroke="none" /><path d="M 120.92983693683757 101.71520430193887 l 22.278181226930034 1.8257013848277894 a43.35286434277495,43.35286434277495 0 0,0 -0.06735260484420084,0.7432303820537155 l -22.243454025808756 -2.2089131554300754" fill="#e4ff1a" stroke="none" /><path d="M 120.89721153311464 102.0752229133903 l 13.99564203830161 1.389854191764652 a35.06448330862677,35.06448330862677 0 0,0 -0.06481535909979394,0.6001097272538 l -13.969644377700764 -1.6305602409032434" fill="#ffb310" stroke="none" /><path d="M 120.81339534386255 102.79330883721812 l 48.58412008440802 6.520341815361771 a70.01970605547665,70.01970605547665 0 0,0 -0.17060117656509943,1.1931842315501462 l -48.46468485682632 -7.355671518892327" fill="#3cffa1" stroke="none" /><path d="M 120.76222939487914 103.15116336523771 l 12.178640408587516 1.8483990694857604 a33.31811111014008,33.31811111014008 0 0,0 -0.09093979413470925,0.5662821848856469 l -12.145018860091517 -2.0577604840646124" fill="#ff9d0e" stroke="none" /><path d="M 120.64145759157962 103.86396538481128 l 25.21903832453238 4.720862889255148 a46.6570933746085,46.6570933746085 0 0,0 -0.1545684339634386,0.7881411147405476 l -25.134039957593277 -5.154267731063641" fill="#bdff1f" stroke="none" /><path d="M 120.5718875245553 104.21870165774334 l 12.10934368609129 2.4832776390459803 a33.361345895187334,33.361345895187334 0 0,0 -0.12020563364789069,0.5615607018869446 l -12.064804013718955 -2.691352160349094" fill="#ff9d0e" stroke="none" /><path d="M 120.49622156327973 104.57218783832717 l 1.9262712573221192 0.4297023228820945 a22.97361724837305,22.97361724837305 0 0,0 -0.08942145106714777,0.3852252708204652 l -1.9185892403244187 -0.4627962510511246" fill="#ff0d01" stroke="none" /><path d="M 120.41448212921028 104.9243191809786 l 10.94441637284161 2.639978772338568 a32.258318598286415,32.258318598286415 0 0,0 -0.13485311394260757,0.5386711562032507 l -10.897351944603942 -2.8279777679392146" fill="#ff8f0d" stroke="none" /><path d="M 120.32669344350535 105.2749913415812 l 22.09661448567927 5.73430452002307 a43.82854835632542,43.82854835632542 0 0,0 -0.19579240154544408,0.7286163627117679 l -21.99463400779205 -6.1138118159103865" fill="#deff1b" stroke="none" /><path d="M 120.23288151984713 105.62410040840565 l 2.079758866856827 0.5781071114858753 a23.1586117707036,23.1586117707036 0 0,0 -0.11006666543868888,0.38315650178202676 l -2.069499564532039 -0.6138210887724841" fill="#ff1001" stroke="none" /><path d="M 120.13307415673323 105.97154293290107 l 10.5402168054807 3.126266594262932 a31.99407627429163,31.99407627429163 0 0,0 -0.16114841467699004,0.5266423431492756 l -10.484841618297576 -3.3072359099642648" fill="#ff8b0c" stroke="none" /><path d="M 120.02730092923936 106.31721596034902 l 29.325060937763674 9.250010455666738 a51.74933970727659,51.74933970727659 0 0,0 -0.27527629762359124,0.8472133293706882 l -29.161492389123833 -9.753422685015222" fill="#85ff25" stroke="none" /><path d="M 119.9155931802556 106.66101706037122 l 9.77204622143782 3.2683820163722617 a31.30413549788932,31.30413549788932 0 0,0 -0.17531682685463215,0.5095527628271326 l -9.714338563639958 -3.4361074822886946" fill="#ff820c" stroke="none" /><path d="M 119.79798401119884 107.00284435728193 l 9.61357185568354 3.4004647839303512 a31.197250833981734,31.197250833981734 0 0,0 -0.1834335048252953,0.5047302237236956 l -9.553614089853019 -3.5654428046601776" fill="#ff800b" stroke="none" /><path d="M 119.67450827220406 107.3425965602758 l 36.13552266033017 13.48590575777498 a59.57000974906311,59.57000974906311 0 0,0 -0.3667972869154491,0.9575919721335034 l -35.89803109382121 -14.105921296741627" fill="#35ff2f" stroke="none" /><path d="M 119.41010516605496 108.01547362559984 l 9.426383274797878 3.892659306971415 a31.198504700373498,31.198504700373498 0 0,0 -0.2092513702530831,0.494608427422775 l -9.357980923352486 -4.054342260060354" fill="#ff800b" stroke="none" /><path d="M 119.26925614724726 108.34839909993367 l 13.503519023416086 5.850395324010917 a35.71639057184094,35.71639057184094 0 0,0 -0.24926454569158096,0.5620257466162726 l -13.400813392993232 -6.081969407119877" fill="#ffbc11" stroke="none" /><path d="M 119.12269723197855 108.67885076344098 l 12.014910811613033 5.452976460646193 a34.19443193515269,34.19443193515269 0 0,0 -0.24786954777490122,0.5338889543969748 l -11.9192666469983 -5.658985482321998" fill="#ffa80f" stroke="none" /><path d="M 118.97047184881838 109.00673069616215 l 23.686006209499553 11.245554717705929 a47.22001889902769,47.22001889902769 0 0,0 -0.3549298193239603,0.7312605545472486 l -23.488923133560878 -11.651604228218453" fill="#b7ff1f" stroke="none" /><path d="M 118.81262510543309 109.33194174019688 l 23.34968720658099 11.582536697693786 a47.06459378157648,47.06459378157648 0 0,0 -0.36625516770257704,0.7226561925139475 l -23.146853369092145 -11.982747101910428" fill="#b9ff1f" stroke="none" /><path d="M 118.64920377521936 109.65438752849418 l 17.365053737891497 8.98960407422322 a40.553978437421634,40.553978437421634 0 0,0 -0.3262615685001979,0.6171639327200298 l -17.207739661166407 -9.287183022029383" fill="#fff817" stroke="none" /><line stroke="#e1ed5e" stroke-width="0.3" x1="174.80103733775053" x2="179.2010983576182" y1="140.37084112569926" y2="142.7455964860345" /><path d="M 175.68104954172406 140.8457921977663 a86.0,86.0 0 0,1 -30.038265399797805,32.042727171017184" fill="none" id="id5" stroke="none" /><text fill="#e1ed5e" style="font-size:6.75px; font-family:Arial;" text-anchor="middle"><textPath startOffset="22.206326154141568" xlink:href="#id5">May</textPath></text><path d="M 118.30583269289576 110.29060199501025 l 39.14178869328329 22.003509786893694 a65.9024950871504,65.9024950871504 0 0,0 -0.5644015328572196,0.9840816460833454 l -38.75723516427369 -22.674011278835355" fill="#37ff73" stroke="none" /><path d="M 118.12598468904814 110.60418214915192 l 33.72648663001289 19.730889858451874 a60.07408239499422,60.07408239499422 0 0,0 -0.5298509016396845,0.8880605881150315 l -33.38185485267498 -20.30851254045301" fill="#30ff2f" stroke="none" /><path d="M 117.94076556474637 110.91462005526583 l 53.8222966942391 32.74386016579747 a84.0,84.0 0 0,0 -0.7621414413281484,1.228814674538906 l -53.25069061324299 -33.665471171701654" fill="#4dd2ff" stroke="none" /><path d="M 117.75023020441432 111.22182372390056 l 1.967101573409533 1.2436158207300019 a23.327244918284325,23.327244918284325 0 0,0 -0.21749338599107085,0.33755456495279323 l -1.9454033240414117 -1.2772919856042482" fill="#ff1302" stroke="none" /><line stroke="#e1ed5e" stroke-width="0.3" x1="143.8653032363475" x2="146.44561519142675" y1="172.8068346515853" y2="177.08958963109032" /><path d="M 144.38136562736335 173.6633856474863 a86.0,86.0 0 0,1 -40.68145358897372,12.25698825130547" fill="none" id="id6" stroke="none" /><text fill="#e1ed5e" style="font-size:6.75px; font-family:Arial;" text-anchor="middle"><textPath startOffset="21.466115282336833" xlink:href="#id6">June</textPath></text><line stroke="#e1ed5e" stroke-width="0.3" x1="102.19456741930631" x2="102.32365962044197" y1="184.97166512339345" y2="189.96999836594603" /><path d="M 102.22038585953345 185.97133177190398 a86.0,86.0 0 0,1 -42.740103519485714,-10.115201625700543" fill="none" id="id7" stroke="none" /><text fill="#e1ed5e" style="font-size:6.75px; font-family:Arial;" text-anchor="middle"><textPath startOffset="22.20632615414155" xlink:href="#id7">July</textPath></text><line stroke="#e1ed5e" stroke-width="0.3" x1="58.666819895761336" x2="56.23545636021788" y1="174.27360380694188" y2="178.64263932499728" /><path d="M 58.180547188652646 175.14741091055294 a86.0,86.0 0 0,1 -31.652253787137756,-30.449443065178592" fill="none" id="id8" stroke="none" /><text fill="#e1ed5e" style="font-size:6.75px; font-family:Arial;" text-anchor="middle"><textPath startOffset="22.20632615414155" xlink:href="#id8">August</textPath></text><line stroke="#e1ed5e" stroke-width="0.3" x1="26.63291911575756" x2="22.317208475507996" y1="142.92168965132927" y2="145.44649492493687" /><path d="M 25.769776987707644 143.4266507060508 a86.0,86.0 0 0,1 -11.730757126820373,-40.83630448921669" fill="none" id="id9" stroke="none" /><text fill="#e1ed5e" style="font-size:6.75px; font-family:Arial;" text-anchor="middle"><textPath startOffset="21.46611528233685" xlink:href="#id9">September</textPath></text><line stroke="#e1ed5e" stroke-width="0.3" x1="15.007084014347285" x2="10.007500721073583" y1="101.09737516637583" y2="101.16192664675087" /><path d="M 14.007167355692545 101.11028546245083 a86.0,86.0 0 0,1 10.666146001902534,-42.60595125391555" fill="none" id="id10" stroke="none" /><text fill="#e1ed5e" style="font-size:6.75px; font-family:Arial;" text-anchor="middle"><textPath startOffset="22.20632615414155" xlink:href="#id10">October</textPath></text><line stroke="#e1ed5e" stroke-width="0.3" x1="26.266209847984243" x2="21.928928074336255" y1="57.711370442889674" y2="55.22380399835377" /><path d="M 25.398753493254645 57.213857153982495 a86.0,86.0 0 0,1 29.58750427330803,-30.492523968695096" fill="none" id="id11" stroke="none" /><text fill="#e1ed5e" style="font-size:6.75px; font-family:Arial;" text-anchor="middle"><textPath startOffset="21.46611528233685" xlink:href="#id11">November</textPath></text><line stroke="#e1ed5e" stroke-width="0.3" x1="56.762969772571076" x2="54.21961505331055" y1="26.818313649435495" y2="22.513508569990535" /><path d="M 56.25429882871897 25.957352633546506 a86.0,86.0 0 0,1 42.265352541879196,-11.944610805530505" fill="none" id="id12" stroke="none" /><text fill="#e1ed5e" style="font-size:6.75px; font-family:Arial;" text-anchor="middle"><textPath startOffset="22.20632615414155" xlink:href="#id12">December</textPath></text></svg>